<?xml version="1.0" standalone="no"?>
<!DOCTYPE svg PUBLIC "-//W3C//DTD SVG 20010904//EN"
 "http://www.w3.org/TR/2001/REC-SVG-20010904/DTD/svg10.dtd">
<svg version="1.0" xmlns="http://www.w3.org/2000/svg"
 width="3000.000000pt" height="2400.000000pt" viewBox="0 0 3000.000000 2400.000000"
 preserveAspectRatio="xMidYMid meet">

<g transform="translate(0.000000,2400.000000) scale(0.100000,-0.100000)"
fill="#000000" stroke="none">
<path d="M6135 18058 c-202 -35 -329 -89 -433 -183 -160 -146 -235 -367 -233
-692 2 -417 115 -913 378 -1653 251 -709 615 -1426 1052 -2077 220 -328 255
-398 282 -576 16 -103 8 -373 -13 -412 -27 -51 -53 -68 -102 -67 -58 2 -103
25 -198 106 -144 121 -295 212 -688 413 -759 390 -1458 605 -2230 685 -189 20
-733 17 -940 -5 -319 -34 -817 -129 -898 -171 -42 -22 -74 -61 -70 -87 7 -46
42 -58 314 -104 1221 -207 2214 -512 3284 -1010 386 -179 992 -512 1255 -688
130 -88 208 -196 245 -343 24 -94 27 -222 5 -230 -12 -5 -232 103 -450 221
-96 53 -435 211 -623 291 -823 353 -1625 561 -2401 624 -179 15 -592 19 -766
9 -656 -39 -1295 -184 -1915 -433 -174 -70 -740 -344 -740 -358 0 -17 89 -14
610 22 344 24 736 32 1215 26 275 -3 520 -8 545 -11 25 -2 117 -9 205 -15 942
-65 1897 -257 2776 -559 250 -86 391 -142 396 -157 2 -6 -16 -16 -39 -23 -24
-7 -102 -39 -173 -71 -293 -130 -345 -137 -630 -97 -612 88 -1402 84 -1964 -9
-626 -103 -1086 -291 -1531 -623 -158 -118 -331 -292 -409 -411 -66 -101 -80
-135 -63 -152 8 -8 144 20 474 96 949 218 1171 253 2008 318 293 22 735 13
844 -19 18 -5 17 -7 -6 -19 -15 -8 -117 -34 -227 -59 -333 -75 -507 -142 -697
-268 -298 -196 -513 -479 -624 -820 -26 -80 -37 -100 -57 -108 -14 -5 -371 -9
-867 -9 -712 0 -845 -2 -862 -14 -18 -13 -19 -28 -19 -195 0 -134 3 -183 13
-193 10 -10 184 -14 863 -18 741 -4 851 -7 859 -20 11 -17 13 -23 35 -140 100
-526 499 -976 1020 -1149 311 -103 605 -118 940 -46 129 27 231 15 338 -40 30
-16 100 -74 167 -139 232 -227 445 -349 726 -420 170 -42 242 -51 414 -50 178
0 291 18 455 70 110 35 271 113 352 171 91 64 222 191 288 277 134 178 173
197 471 231 385 44 544 72 746 131 316 92 616 261 795 446 128 132 256 354
314 541 18 57 40 110 51 120 19 16 271 17 4999 17 3627 0 4985 -3 5002 -11 31
-14 39 -29 82 -162 91 -284 275 -521 539 -695 324 -214 681 -322 1267 -382
126 -13 227 -29 263 -42 90 -30 165 -88 257 -199 225 -273 465 -421 789 -486
120 -25 467 -25 600 0 254 47 493 154 685 307 22 17 92 82 155 143 118 115
169 148 263 173 59 16 163 18 222 4 194 -44 512 -55 692 -24 502 85 949 405
1160 829 73 146 122 307 139 452 4 37 13 68 22 75 12 10 207 14 904 18 866 5
890 6 904 24 21 30 20 343 -2 374 l-15 22 -909 0 c-499 0 -916 3 -925 6 -10 4
-41 58 -70 120 -69 146 -122 227 -232 355 -333 385 -746 633 -1216 729 -137
28 -149 34 -145 67 2 21 10 29 38 36 52 14 813 1 1030 -17 436 -37 822 -86
1105 -141 322 -63 902 -200 1029 -244 106 -37 165 -23 182 45 9 37 -9 69 -104
177 -205 234 -487 444 -817 610 -108 54 -382 163 -519 206 -608 193 -1365 250
-2146 160 -193 -22 -470 -26 -611 -8 -166 20 -458 91 -612 149 -47 18 -56 24
-47 35 12 15 453 164 705 239 1180 350 2350 513 3550 492 482 -8 834 -30 1240
-77 304 -35 295 -35 295 -10 0 39 -39 99 -82 129 -167 113 -552 295 -848 402
-1232 442 -2847 407 -4287 -93 -364 -127 -698 -271 -1060 -458 -241 -124 -313
-166 -426 -250 -87 -65 -118 -72 -160 -39 -55 44 -54 200 2 325 53 117 131
177 526 413 724 431 1547 806 2325 1060 643 210 1225 347 2099 494 228 39 242
47 177 104 -48 42 -110 65 -301 114 -328 84 -679 129 -1071 137 -610 13 -1173
-74 -1800 -278 -571 -185 -1220 -499 -1644 -794 -196 -136 -211 -145 -245
-145 -25 0 -38 7 -54 28 -59 84 -91 292 -72 477 15 155 33 196 162 380 546
782 990 1689 1312 2680 164 506 238 968 216 1351 -22 378 -163 597 -449 696
-30 10 -118 30 -195 43 -124 22 -168 25 -401 25 l-261 0 -273 -45 c-1048 -174
-2001 -501 -2975 -1021 -258 -138 -355 -173 -495 -181 -156 -9 -274 20 -534
133 -1012 439 -2073 698 -3171 774 -298 20 -704 31 -915 25 -1459 -43 -2710
-316 -3897 -851 -279 -126 -305 -135 -381 -135 -86 0 -124 14 -268 100 -142
86 -517 275 -774 390 -570 258 -1204 479 -1804 631 -512 129 -722 159 -1181
169 -270 5 -324 4 -410 -11z m5965 -4707 c952 -70 1734 -797 1874 -1743 110
-739 -177 -1456 -766 -1910 -301 -232 -672 -379 -1057 -418 -530 -53 -1083
115 -1486 452 -424 354 -686 843 -746 1393 -14 129 -7 358 16 490 142 850 824
1558 1648 1710 172 32 327 40 517 26z m6302 -20 c327 -57 610 -181 888 -389
95 -71 284 -254 363 -352 241 -299 396 -656 447 -1035 14 -101 13 -384 -1
-495 -35 -281 -145 -592 -296 -833 -62 -100 -198 -269 -289 -361 -309 -310
-692 -503 -1134 -572 -151 -24 -470 -24 -615 0 -425 68 -789 242 -1074 511
-340 321 -551 707 -637 1167 -25 130 -30 456 -10 602 71 504 330 968 731 1305
318 268 692 428 1100 470 135 14 391 5 527 -18z m-3166 -4511 c239 -19 544
-79 637 -126 60 -30 107 -85 124 -144 20 -70 49 -128 80 -161 l25 -27 -149 -7
c-168 -9 -1980 -1 -1989 8 -9 8 44 165 72 214 57 99 167 150 424 197 268 48
539 65 776 46z"/>
<path d="M11897 11706 c-100 -37 -150 -136 -216 -430 -56 -248 -65 -337 -65
-626 0 -223 3 -287 22 -405 41 -260 113 -510 168 -582 57 -75 172 -93 252 -41
94 63 192 357 222 664 15 164 13 638 -4 774 -40 319 -130 568 -228 628 -46 28
-104 35 -151 18z"/>
<path d="M18030 11710 c-54 -15 -92 -43 -121 -88 -58 -91 -134 -379 -164 -622
-19 -161 -20 -504 0 -670 25 -218 94 -523 136 -605 91 -176 286 -178 374 -5
50 100 105 297 130 465 23 153 23 769 1 929 -29 203 -94 414 -156 507 -45 68
-134 108 -200 89z"/>
</g>
</svg>
