<?xml version="1.0" standalone="no"?>
<!DOCTYPE svg PUBLIC "-//W3C//DTD SVG 20010904//EN"
 "http://www.w3.org/TR/2001/REC-SVG-20010904/DTD/svg10.dtd">
<svg version="1.0" xmlns="http://www.w3.org/2000/svg"
 width="1004.000000pt" height="1340.000000pt" viewBox="0 0 1004.000000 1340.000000"
 preserveAspectRatio="xMidYMid meet">

<g transform="translate(0.000000,1340.000000) scale(0.100000,-0.100000)"
fill="#000000" stroke="none">
<path d="M5282 12151 c-80 -28 -157 -86 -214 -162 l-50 -68 -72 72 c-92 93
-176 138 -267 145 -73 5 -103 -6 -164 -60 -87 -75 -119 -264 -76 -443 45 -183
141 -346 301 -506 52 -52 139 -143 194 -202 66 -72 105 -107 120 -107 48 0
426 456 517 624 55 103 79 192 79 298 0 312 -154 483 -368 409z m157 -65 c38
-20 94 -92 113 -146 49 -136 33 -351 -33 -434 -10 -13 -19 -30 -19 -36 0 -7
-10 -26 -22 -43 -56 -80 -224 -304 -239 -317 -8 -8 -49 -53 -90 -100 -104
-119 -100 -117 -142 -62 -15 20 -90 100 -165 177 -195 198 -259 295 -323 485
-18 52 -22 88 -22 180 0 106 2 119 28 173 66 134 165 141 322 23 56 -42 113
-104 113 -123 1 -17 52 -45 73 -39 20 5 49 43 69 90 28 65 115 138 201 167 64
22 99 23 136 5z"/>
<path d="M6015 10168 c-42 -15 -150 -84 -210 -132 -171 -141 -379 -414 -429
-565 -26 -79 -33 -90 -105 -160 -81 -79 -116 -125 -171 -226 -18 -33 -36 -64
-40 -68 -4 -4 -29 29 -55 74 -32 54 -80 114 -140 174 -126 126 -220 190 -375
258 -52 23 -58 30 -116 128 -34 57 -83 145 -109 194 -57 107 -140 231 -169
251 -37 26 -78 17 -142 -30 -71 -52 -115 -101 -187 -210 -59 -90 -151 -268
-187 -361 -13 -33 -28 -65 -34 -72 -12 -12 -153 -49 -311 -82 -115 -24 -203
-48 -327 -91 l-88 -31 -82 48 c-100 57 -170 105 -347 235 -73 55 -143 104
-156 110 -85 39 -225 -211 -315 -561 -27 -107 -42 -280 -39 -461 l3 -155 -34
-49 c-19 -27 -50 -70 -68 -95 -59 -83 -156 -264 -202 -376 -64 -156 -60 -151
-106 -138 -22 7 -82 17 -135 23 -104 13 -143 5 -137 -28 3 -13 19 -18 78 -23
95 -8 189 -26 205 -39 8 -7 5 -34 -14 -111 l-26 -101 -60 -23 c-51 -18 -60
-26 -63 -48 -4 -31 11 -34 62 -13 18 8 37 11 42 7 5 -3 9 -82 10 -176 0 -131
4 -185 18 -235 72 -262 234 -456 485 -581 48 -24 95 -46 106 -50 97 -37 275
-80 408 -100 73 -10 87 -15 87 -31 0 -10 -4 -18 -8 -18 -8 0 -82 -95 -82 -105
0 -2 -21 -37 -47 -77 -132 -206 -260 -544 -304 -803 -14 -86 -14 -328 1 -404
25 -130 45 -202 86 -301 48 -119 71 -167 85 -175 20 -13 6 -44 -49 -110 -31
-38 -68 -89 -82 -112 -14 -24 -50 -85 -81 -135 -196 -321 -275 -519 -368 -914
-129 -550 -46 -1193 202 -1559 48 -70 253 -277 317 -319 25 -17 56 -40 70 -52
73 -64 266 -137 460 -173 30 -6 80 -16 110 -22 85 -18 454 -21 605 -4 187 20
406 60 531 96 60 17 118 33 129 36 98 25 290 100 415 163 30 15 102 51 160 79
218 105 390 240 450 352 17 32 35 61 40 64 5 3 23 -22 41 -54 67 -127 236
-250 584 -426 217 -110 251 -123 583 -226 279 -87 825 -138 1082 -103 366 51
562 132 748 309 287 273 370 406 457 735 44 169 53 219 66 389 13 174 2 437
-25 582 -47 248 -94 421 -175 637 -40 108 -161 339 -247 474 -51 79 -180 254
-194 263 -17 10 -11 39 15 70 83 100 170 274 216 431 52 179 57 485 13 709
-46 232 -192 557 -326 725 -102 128 -127 163 -122 172 3 5 52 31 107 57 271
128 489 325 646 583 59 97 108 197 120 243 46 183 69 258 82 266 7 5 60 9 115
9 79 0 104 3 114 15 25 30 -5 40 -125 43 l-115 4 0 58 c0 32 -3 65 -6 73 -9
25 21 43 97 56 83 15 109 26 109 45 0 22 -27 26 -98 16 -109 -16 -110 -15
-117 28 -33 201 -65 308 -145 485 -89 195 -176 337 -317 518 -77 99 -83 109
-73 134 16 43 30 288 30 550 0 298 3 290 -109 283 -90 -6 -168 -32 -315 -104
-141 -70 -163 -84 -271 -169 -77 -61 -112 -96 -165 -162 -8 -9 -23 -8 -68 7
-209 72 -310 98 -512 137 -74 14 -145 18 -318 18 l-222 0 -14 45 c-8 25 -27
103 -41 174 -52 250 -97 327 -192 325 -27 0 -61 -5 -78 -11z m113 -65 c12 -10
30 -42 41 -71 20 -51 30 -91 66 -272 10 -47 21 -93 26 -102 13 -24 0 -48 -26
-48 -32 0 -51 -25 -35 -45 16 -19 61 -19 191 1 114 17 361 15 454 -5 28 -6 99
-20 159 -31 153 -29 513 -148 551 -181 5 -5 22 -9 37 -9 47 0 36 33 -22 64
-27 15 -50 33 -50 39 0 27 166 171 278 241 150 94 399 188 448 169 16 -6 17
-29 11 -327 -4 -177 -10 -345 -13 -374 l-7 -52 -32 6 c-53 10 -53 -13 2 -69
103 -107 251 -316 347 -492 110 -203 171 -373 207 -583 15 -89 15 -89 -101
-132 -150 -55 -200 -81 -200 -103 0 -26 25 -21 174 37 135 52 146 50 146 -19
0 -72 -10 -105 -34 -109 -147 -27 -180 -43 -138 -65 13 -7 38 -7 81 1 75 14
83 8 70 -52 -31 -140 -66 -237 -129 -351 -167 -300 -423 -528 -735 -653 -280
-113 -587 -151 -881 -111 -60 8 -118 16 -129 18 -31 4 -30 -29 2 -41 97 -37
342 -57 515 -42 72 7 142 16 156 21 13 5 40 9 60 9 20 0 73 11 116 25 43 13
85 21 92 17 21 -12 176 -221 230 -312 168 -279 241 -525 251 -845 9 -280 -15
-399 -126 -620 -54 -110 -74 -142 -121 -199 -50 -62 -192 -196 -207 -196 -3 0
-22 -13 -42 -29 -52 -41 -204 -117 -286 -142 -16 -6 -91 -25 -166 -44 -215
-54 -665 -87 -909 -66 -454 38 -750 86 -889 144 l-74 31 -17 -22 c-13 -16 -29
-22 -57 -22 -40 0 -113 17 -113 27 0 3 23 30 51 61 158 173 190 439 66 563
-57 56 -91 70 -179 74 -47 1 -85 8 -95 16 -10 8 -24 19 -33 26 -8 6 -41 33
-72 58 l-58 46 0 78 c0 86 39 331 64 400 9 24 16 52 16 63 0 10 53 74 121 146
109 115 180 198 262 309 15 20 42 66 59 101 59 119 47 220 -36 310 -72 78 -94
82 -351 72 -71 -3 -87 -1 -140 24 -75 35 -182 106 -222 149 -72 74 -97 217
-55 307 29 62 53 87 106 111 40 17 59 19 148 14 146 -9 316 -35 366 -57 52
-22 76 -23 91 -4 26 31 -71 75 -219 99 l-75 13 -6 169 c-19 512 -21 912 -5
1148 9 131 16 310 16 398 l0 160 37 72 c62 121 165 239 250 288 65 37 75 55
43 79 l-24 18 31 68 c70 159 310 439 468 547 114 78 164 92 203 60z m-2061
-68 c29 -21 82 -102 163 -255 39 -72 83 -150 98 -172 16 -25 22 -43 16 -45
-26 -9 -47 -31 -42 -45 4 -10 26 -17 65 -21 101 -9 287 -113 408 -226 181
-170 256 -303 271 -481 3 -41 0 -201 -7 -355 -18 -355 -17 -556 1 -978 12
-295 12 -340 -1 -348 -7 -5 -53 -6 -101 -3 -116 8 -175 -11 -239 -77 -57 -59
-79 -118 -79 -213 0 -81 23 -155 67 -215 42 -58 144 -135 228 -172 70 -32 88
-50 65 -64 -5 -3 -10 -15 -10 -26 0 -14 7 -19 24 -19 14 0 28 4 31 10 3 5 45
21 92 36 69 21 101 25 163 22 70 -3 82 -6 116 -34 49 -39 84 -105 84 -158 0
-103 -121 -279 -356 -517 -68 -69 -114 -124 -114 -136 0 -11 -9 -46 -20 -79
-20 -58 -53 -236 -67 -369 l-8 -70 -77 0 c-68 0 -79 -3 -103 -25 -46 -43 -59
-78 -59 -165 -1 -103 32 -217 71 -242 25 -16 27 -16 67 6 275 156 430 193 528
128 50 -33 88 -116 88 -193 0 -74 -31 -182 -70 -244 -94 -148 -303 -258 -532
-281 -57 -5 -141 -14 -188 -19 -231 -25 -483 -32 -885 -26 -544 7 -706 25
-937 101 -134 44 -185 68 -273 127 -161 107 -277 269 -337 468 -95 313 -74
612 69 985 47 121 125 285 163 339 16 25 30 47 30 50 0 7 55 90 104 156 22 30
41 56 41 57 0 1 104 4 230 6 258 4 328 15 323 51 -3 24 1 24 -221 11 -134 -8
-207 -4 -462 26 -148 18 -376 79 -492 132 -95 43 -299 194 -326 242 -7 12 -29
47 -50 78 -47 71 -92 182 -107 267 -17 92 -16 370 2 381 7 5 42 9 78 10 36 0
90 4 120 7 46 6 55 10 58 29 4 28 -10 31 -134 25 -72 -3 -103 -1 -109 7 -10
16 23 147 41 162 12 9 32 8 92 -5 107 -24 135 -25 140 -4 4 22 -37 43 -127 63
-39 9 -73 20 -76 25 -9 15 78 218 144 335 103 183 190 299 254 338 41 26 36
55 -10 59 l-38 3 -3 65 c-2 36 1 139 7 230 9 135 17 189 46 297 53 199 114
346 178 425 32 40 57 48 77 24 23 -28 323 -244 429 -309 54 -33 61 -40 55 -62
-10 -38 17 -37 126 5 114 44 267 88 418 121 362 78 417 93 420 117 3 22 -4 26
-45 23 -11 -1 -24 3 -28 8 -7 12 118 267 178 361 71 112 136 186 206 232 32
22 31 22 58 3z m793 -5068 c44 -20 220 -159 214 -168 -2 -5 -37 -24 -77 -43
-40 -19 -101 -50 -135 -70 -35 -20 -72 -36 -82 -36 -48 0 -69 241 -25 290 34
38 65 46 105 27z m3299 -817 c31 -41 68 -93 82 -115 38 -60 186 -335 204 -381
9 -21 20 -48 25 -59 36 -85 103 -297 131 -413 52 -225 67 -326 75 -527 11
-269 -16 -482 -93 -735 -70 -233 -141 -349 -321 -529 -235 -235 -405 -318
-747 -366 -197 -27 -588 -15 -770 24 -243 53 -356 81 -500 126 -162 51 -382
141 -415 169 -8 7 -51 31 -95 53 -245 123 -393 238 -444 347 -56 117 -59 166
-14 211 21 20 36 25 77 25 64 0 176 -25 311 -68 28 -9 257 -106 450 -189 248
-107 502 -191 658 -218 288 -51 624 -30 830 51 342 134 592 435 671 809 56
262 63 513 20 743 -28 152 -93 391 -139 508 -51 130 -163 359 -231 471 -24 40
-44 79 -44 87 0 8 33 42 73 75 l72 60 39 -42 c21 -23 64 -76 95 -117z m-5783
98 c11 -13 42 -42 69 -65 l50 -42 -17 -28 c-73 -125 -165 -303 -220 -427 -130
-296 -219 -722 -203 -966 11 -154 44 -365 71 -453 29 -91 87 -212 142 -297 42
-66 218 -243 286 -288 199 -134 443 -197 741 -193 282 3 499 54 855 200 41 17
98 39 125 50 28 10 133 52 235 94 267 108 449 157 517 141 90 -22 115 -68 88
-161 -41 -142 -107 -213 -315 -339 -106 -64 -433 -221 -525 -252 -222 -75
-374 -113 -604 -153 -453 -77 -828 -59 -1146 56 -49 18 -115 47 -145 65 -200
118 -454 388 -527 560 -75 179 -129 427 -144 675 -11 163 -10 198 9 375 32
293 123 629 242 886 39 84 194 352 239 414 67 92 134 170 145 170 7 0 21 -10
32 -22z m5462 -155 c100 -143 223 -396 287 -593 29 -88 34 -106 64 -225 39
-155 48 -211 61 -375 13 -165 3 -295 -40 -510 -26 -127 -43 -175 -109 -305
-48 -94 -70 -125 -156 -214 -161 -168 -301 -248 -525 -301 -124 -29 -402 -36
-560 -14 -216 31 -450 109 -800 269 -82 37 -349 148 -414 172 -62 22 -132 40
-219 54 -93 16 -152 4 -209 -42 -39 -30 -62 -36 -74 -18 -13 22 -90 49 -140
49 -100 0 -297 -52 -469 -125 -16 -7 -61 -25 -100 -40 -38 -15 -144 -58 -235
-95 -452 -186 -682 -239 -975 -226 -209 10 -339 35 -462 92 -17 8 -35 14 -40
14 -5 0 -49 26 -98 58 -85 55 -220 181 -280 262 -37 49 -132 240 -146 292 -88
342 -93 670 -12 968 14 52 34 124 43 160 23 83 69 212 81 224 5 6 9 16 9 22 0
23 59 140 145 290 47 82 88 150 90 152 2 2 54 -16 117 -41 311 -124 466 -145
1108 -153 380 -5 452 -4 675 16 517 44 565 53 726 136 45 23 48 23 90 8 69
-24 184 -44 262 -44 40 -1 92 -5 117 -11 126 -28 279 -53 420 -69 58 -6 132
-16 165 -21 135 -21 465 -32 625 -19 373 28 552 63 760 147 74 30 143 61 154
69 29 20 42 18 64 -13z"/>
<path d="M5635 8385 c-5 -2 -22 -6 -37 -9 -37 -8 -96 -72 -104 -111 -9 -52 12
-110 54 -144 32 -27 45 -31 95 -31 68 0 102 17 135 64 47 69 15 178 -63 215
-43 20 -58 23 -80 16z"/>
<path d="M6664 8160 c-95 -47 -119 -157 -51 -235 44 -51 153 -41 215 21 33 33
34 37 29 89 -6 62 -34 108 -77 130 -39 20 -67 19 -116 -5z"/>
<path d="M6103 8008 c-14 -17 -38 -74 -53 -120 -16 -51 -96 -122 -155 -137
-33 -8 -45 -16 -45 -30 0 -27 22 -32 80 -17 34 9 64 26 89 50 39 38 61 46 61
21 0 -34 49 -92 95 -114 61 -29 150 -27 150 3 0 16 -12 22 -62 32 -86 17 -107
34 -128 102 -17 54 -18 59 -1 125 14 54 15 71 6 82 -15 18 -25 19 -37 3z"/>
<path d="M4353 8352 c-46 -25 -64 -54 -69 -115 -7 -66 17 -113 72 -144 72 -40
145 -26 198 37 22 27 26 41 26 96 0 59 -3 67 -34 101 -31 34 -38 37 -97 40
-47 2 -72 -1 -96 -15z"/>
<path d="M3360 7922 c-52 -26 -84 -95 -75 -163 10 -69 47 -111 114 -128 77
-20 141 11 180 86 30 59 3 163 -52 201 -41 27 -117 30 -167 4z"/>
<path d="M4004 7780 c4 -49 2 -97 -4 -121 -13 -47 -59 -102 -99 -119 -46 -19
-53 -60 -10 -60 40 0 99 40 129 88 16 26 30 52 30 59 0 24 21 24 52 0 67 -50
166 -60 223 -23 38 25 22 36 -54 36 -81 0 -119 14 -153 55 -32 38 -44 62 -52
104 -8 43 -23 61 -49 61 -19 0 -20 -4 -13 -80z"/>
</g>
</svg>
