<?xml version="1.0" standalone="no"?>
<!DOCTYPE svg PUBLIC "-//W3C//DTD SVG 20010904//EN"
 "http://www.w3.org/TR/2001/REC-SVG-20010904/DTD/svg10.dtd">
<svg version="1.0" xmlns="http://www.w3.org/2000/svg"
 width="244.000000pt" height="432.000000pt" viewBox="0 0 244.000000 432.000000"
 preserveAspectRatio="xMidYMid meet">

<g transform="translate(0.000000,432.000000) scale(0.100000,-0.100000)"
fill="#000000" stroke="none">
<path d="M690 3117 c-60 -30 -130 -235 -130 -383 0 -49 -6 -77 -25 -114 -29
-56 -55 -157 -55 -212 l0 -37 -49 6 c-44 5 -50 3 -62 -18 -21 -39 -24 -277 -5
-381 16 -85 16 -89 -5 -150 -17 -51 -20 -80 -17 -153 5 -108 29 -164 97 -232
41 -42 185 -123 217 -123 9 0 10 -9 3 -35 -6 -20 -9 -63 -8 -98 1 -34 -2 -101
-6 -148 -5 -61 -4 -88 4 -93 7 -5 11 4 11 27 0 19 3 48 6 65 6 31 6 31 35 -28
26 -52 53 -79 66 -66 3 3 -7 21 -22 40 -38 50 -65 144 -65 229 0 97 3 99 73
83 45 -11 57 -11 57 -1 0 7 -17 16 -37 19 -116 21 -243 78 -309 138 -110 101
-135 290 -57 428 57 99 65 121 52 136 -6 8 -18 14 -25 14 -17 0 -18 17 -1 23
9 3 7 9 -6 24 -24 27 -21 34 8 27 31 -8 31 -4 1 143 l-23 113 26 -6 c33 -8 46
-21 59 -61 9 -27 8 -33 -4 -33 -7 0 -14 -5 -14 -11 0 -6 8 -8 19 -4 13 4 23
-2 34 -19 17 -26 13 -36 -15 -36 -10 0 -18 -5 -18 -11 0 -7 10 -9 26 -5 28 7
64 0 64 -14 0 -4 -16 -17 -35 -29 -19 -11 -35 -25 -35 -31 0 -6 18 1 41 16
l41 26 62 -31 c100 -49 225 -80 352 -88 104 -6 112 -7 104 -24 -27 -49 9 -119
60 -119 20 0 33 7 41 21 13 26 4 82 -17 100 -14 11 -3 16 75 35 57 14 132 44
202 79 61 31 112 55 114 53 2 -2 -24 -40 -56 -86 -75 -104 -76 -122 -9 -87 37
19 39 7 5 -25 -31 -29 -32 -40 -2 -40 21 -1 21 -1 4 -15 -18 -13 -18 -15 7
-52 29 -43 33 -58 11 -50 -8 4 -17 2 -20 -4 -4 -5 -11 -7 -16 -4 -5 3 -6 -1
-2 -11 5 -15 7 -15 15 0 5 9 14 14 19 10 5 -3 -19 -36 -55 -72 -131 -137 -214
-249 -252 -343 -45 -111 -23 -154 76 -147 50 3 51 3 45 -22 -8 -33 -69 -151
-111 -217 -25 -39 -30 -53 -19 -53 28 0 154 230 155 281 0 9 15 28 34 43 l34
26 16 -73 c9 -39 19 -119 23 -177 10 -132 29 -138 25 -7 -2 50 -12 132 -22
181 l-18 90 42 50 c42 50 136 183 136 191 0 3 -6 5 -12 5 -7 -1 -39 -38 -70
-83 -69 -98 -136 -169 -181 -190 -50 -24 -119 -31 -141 -14 -17 13 -18 16 -3
68 15 48 62 136 109 199 17 23 18 23 37 6 19 -17 21 -17 39 1 11 10 24 28 31
40 9 18 8 23 -9 28 -24 8 -25 18 -4 35 12 11 18 10 31 -3 14 -14 18 -14 39 0
27 17 31 41 9 49 -8 4 -15 12 -15 20 0 8 7 14 15 14 8 0 15 -4 15 -10 0 -18
25 -11 38 11 9 14 10 24 3 33 -8 9 -4 19 15 37 15 14 23 31 21 41 -3 10 3 45
14 78 29 94 41 183 30 231 -15 68 -37 71 -140 20 -31 -16 -84 -43 -117 -60
-127 -64 -270 -83 -453 -61 -139 18 -321 83 -321 116 0 9 -7 14 -17 12 -12 -2
-17 3 -15 15 2 11 -4 17 -16 17 -11 0 -25 6 -31 14 -10 12 -7 15 21 18 34 4
26 11 -24 22 -34 8 -51 55 -50 146 1 113 58 250 131 318 32 29 34 35 22 54
-11 18 -11 20 3 15 21 -8 29 8 16 34 -15 27 -7 35 14 14 9 -9 20 -13 26 -10
13 8 13 86 -1 180 -6 42 -9 79 -5 82 11 11 90 -19 143 -54 29 -19 68 -56 87
-83 33 -46 34 -49 16 -55 -11 -4 -20 -13 -20 -21 0 -17 0 -17 41 0 19 7 48 16
65 19 28 5 31 4 27 -14 -4 -15 -8 -17 -13 -8 -12 19 -40 2 -40 -23 0 -13 8
-32 16 -43 16 -20 16 -19 11 5 -2 14 -8 34 -13 45 -7 19 -7 19 9 3 9 -9 17
-23 18 -30 0 -10 18 22 23 42 1 3 7 15 14 28 11 18 21 22 60 21 37 0 42 -2 25
-9 -19 -8 -42 -64 -30 -76 2 -3 8 11 11 31 7 34 19 45 31 26 3 -5 1 -12 -5
-16 -5 -3 -10 -11 -10 -18 0 -6 7 -2 15 9 14 18 14 17 16 -16 1 -32 2 -33 9
-10 12 39 11 50 -5 50 -9 0 -12 6 -8 17 4 11 8 12 11 5 2 -7 8 -12 13 -12 6 0
7 5 4 10 -4 6 8 10 29 10 29 0 36 -4 36 -20 0 -11 -3 -20 -7 -20 -5 0 -8 -21
-8 -48 0 -44 2 -47 24 -44 20 2 22 0 11 -13 -18 -22 4 -19 23 3 11 12 17 36
17 70 0 56 5 60 50 37 27 -14 30 -14 30 0 0 32 302 200 308 171 4 -16 -29
-148 -58 -230 -11 -33 -18 -62 -15 -65 3 -3 19 3 34 12 40 24 55 22 41 -3 -12
-23 -5 -44 12 -34 7 4 8 -4 4 -22 -6 -25 0 -37 38 -78 25 -26 51 -64 58 -84
16 -48 16 -232 -1 -302 -22 -92 -86 -214 -134 -256 l-43 -38 13 -50 c20 -76
54 -392 60 -557 6 -161 -4 -241 -43 -348 -24 -64 -24 -92 1 -58 7 10 22 48 34
85 22 66 23 68 71 85 105 37 173 142 280 432 65 176 77 245 52 293 -15 27 -53
29 -75 5 -18 -21 -40 -97 -61 -214 -31 -169 -95 -314 -173 -393 -52 -53 -67
-58 -58 -18 12 55 -30 530 -59 668 l-13 61 44 44 c53 53 104 157 127 256 20
89 21 231 1 305 -10 40 -12 84 -8 161 12 216 -39 377 -119 377 -34 0 -185 -74
-279 -136 l-67 -44 -38 16 c-63 27 -195 30 -291 7 l-82 -20 -31 43 c-75 104
-219 182 -280 151z m9 -146 c6 -46 11 -87 11 -90 0 -3 -15 -6 -32 -6 -29 0
-33 -3 -33 -27 0 -15 -5 -32 -12 -39 -7 -7 -9 -18 -4 -28 6 -12 0 -24 -22 -46
l-30 -29 6 69 c12 123 75 312 96 289 5 -5 14 -47 20 -93z m1122 44 c24 -55 44
-233 35 -309 l-8 -58 -29 28 c-22 21 -28 35 -24 51 3 12 -1 28 -8 35 -7 6 -12
22 -9 34 4 24 -19 38 -49 29 -18 -6 -18 -4 0 47 10 29 26 86 36 125 10 43 21
70 27 67 6 -4 19 -26 29 -49z m-1417 -727 c3 -24 12 -69 20 -100 l14 -58 -24
0 c-22 0 -30 -12 -23 -35 1 -5 3 -23 3 -39 1 -25 11 -37 44 -52 2 -1 -6 -18
-16 -38 l-20 -37 -11 33 c-25 69 -26 368 -2 368 5 0 11 -19 15 -42z m1246
-181 c-1 -71 -11 -122 -41 -203 -19 -51 -23 -55 -34 -40 -14 19 -13 76 3 116
12 31 -3 54 -30 46 -24 -6 -24 -5 37 81 28 39 53 69 58 66 4 -2 7 -32 7 -66z
m486 -303 c7 -40 -10 -111 -54 -229 -17 -44 -41 -109 -55 -145 -55 -148 -133
-254 -209 -285 -36 -15 -38 -14 -38 4 0 11 15 28 35 41 19 12 50 40 69 63 47
58 120 210 136 285 7 34 15 60 19 58 3 -2 7 21 8 51 3 76 22 141 35 122 7 -10
8 -7 4 12 -3 16 1 33 11 46 22 27 30 22 39 -23z"/>
<path d="M2100 1798 c0 -4 7 -8 15 -8 8 0 15 4 15 8 0 5 -7 9 -15 9 -8 0 -15
-4 -15 -9z"/>
<path d="M1172 2825 c0 -16 2 -22 5 -12 2 9 2 23 0 30 -3 6 -5 -1 -5 -18z"/>
<path d="M725 2461 c-11 -19 -17 -166 -8 -201 11 -43 36 -50 58 -17 20 32 25
188 5 212 -14 17 -46 20 -55 6z"/>
<path d="M1262 2458 c-18 -18 -16 -242 2 -257 16 -14 42 -5 51 17 13 35 18
208 6 230 -13 24 -40 29 -59 10z"/>
<path d="M1610 2332 c-104 -44 -180 -84 -180 -93 0 -6 3 -9 8 -7 65 34 163 78
185 83 15 4 29 11 32 15 10 16 -11 17 -45 2z"/>
<path d="M959 2254 c-12 -15 -11 -19 9 -32 27 -18 28 -46 2 -79 -11 -15 -18
-29 -14 -32 3 -3 14 5 24 19 l19 25 25 -24 c14 -14 29 -21 33 -18 3 4 -6 17
-20 30 -29 25 -38 77 -13 77 23 0 27 29 6 40 -27 15 -56 12 -71 -6z m61 -14
c-20 -13 -50 -13 -50 0 0 6 15 10 33 10 24 0 28 -3 17 -10z"/>
<path d="M1538 2224 c-43 -14 -78 -29 -78 -35 0 -12 -3 -12 100 20 41 13 79
28 85 32 17 16 -28 9 -107 -17z"/>
<path d="M661 2015 c-37 -43 -43 -98 -12 -115 57 -30 134 69 102 129 -18 32
-54 26 -90 -14z"/>
<path d="M903 2005 c-3 -9 2 -22 13 -31 18 -13 16 -17 -34 -62 -74 -67 -71
-73 43 -71 53 1 97 4 99 8 3 4 -15 28 -40 54 -49 53 -52 62 -27 76 14 8 15 12
4 25 -17 20 -50 21 -58 1z m44 -11 c-3 -3 -12 -4 -19 -1 -8 3 -5 6 6 6 11 1
17 -2 13 -5z m3 -79 c11 -13 8 -15 -13 -15 -14 0 -28 -4 -31 -9 -3 -4 13 -8
36 -7 23 1 43 -4 45 -11 3 -8 -18 -12 -65 -15 l-69 -3 36 37 c42 42 44 43 61
23z"/>
<path d="M480 1862 c0 -4 23 -15 50 -24 48 -16 73 -6 28 11 -43 15 -78 21 -78
13z"/>
<path d="M1255 1820 c-4 -6 20 -10 64 -10 38 0 73 5 76 10 4 6 -20 10 -64 10
-38 0 -73 -4 -76 -10z"/>
<path d="M465 1790 c-4 -6 13 -10 45 -10 32 0 49 4 45 10 -3 6 -24 10 -45 10
-21 0 -42 -4 -45 -10z"/>
<path d="M475 1743 c-27 -9 -44 -18 -37 -20 18 -7 102 17 102 28 0 11 -5 11
-65 -8z"/>
<path d="M1260 1751 c0 -6 13 -11 29 -11 15 0 50 -3 77 -6 34 -5 46 -3 39 4
-15 15 -145 27 -145 13z"/>
<path d="M1280 1682 c0 -8 84 -52 100 -52 17 0 11 17 -7 23 -10 3 -35 12 -55
21 -21 9 -38 13 -38 8z"/>
<path d="M1460 1539 c0 -5 5 -7 10 -4 6 3 10 8 10 11 0 2 -4 4 -10 4 -5 0 -10
-5 -10 -11z"/>
<path d="M823 1195 c2 -16 10 -56 16 -87 12 -59 2 -130 -19 -143 -11 -7 -4
-25 10 -25 13 0 40 77 40 113 0 45 -25 147 -40 160 -10 9 -11 5 -7 -18z"/>
<path d="M1146 1188 c-45 -60 -96 -165 -99 -201 -3 -48 16 -48 24 0 6 44 36
105 85 173 19 26 34 50 34 54 0 16 -21 3 -44 -26z"/>
</g>
</svg>
