<?xml version="1.0" standalone="no"?>
<!DOCTYPE svg PUBLIC "-//W3C//DTD SVG 20010904//EN"
 "http://www.w3.org/TR/2001/REC-SVG-20010904/DTD/svg10.dtd">
<svg version="1.0" xmlns="http://www.w3.org/2000/svg"
 width="245.000000pt" height="245.000000pt" viewBox="0 0 245.000000 245.000000"
 preserveAspectRatio="xMidYMid meet">

<g transform="translate(0.000000,245.000000) scale(0.100000,-0.100000)"
fill="#000000" stroke="none">
<path d="M1152 1875 c-55 -17 -79 -39 -93 -85 -22 -73 33 -170 96 -170 13 0
33 -10 44 -22 19 -19 22 -20 38 -6 10 9 35 18 55 22 69 13 119 98 104 179 -16
83 -125 119 -244 82z m194 -39 c26 -26 34 -42 34 -71 0 -73 -50 -135 -109
-135 -11 0 -26 -10 -32 -22 l-12 -22 -15 22 c-8 12 -23 22 -34 22 -53 0 -108
66 -108 130 0 39 42 86 88 98 20 5 63 10 96 11 53 1 61 -2 92 -33z"/>
<path d="M1392 1465 c-36 -30 -74 -114 -105 -231 -24 -88 -24 -88 -31 -50 -20
103 -78 206 -117 206 -10 0 -34 -14 -54 -31 l-36 -32 -77 16 c-42 9 -105 19
-139 23 -60 6 -63 8 -74 41 -6 18 -22 41 -35 50 -32 21 -70 5 -123 -52 -46
-50 -125 -207 -142 -282 -10 -40 -17 -53 -31 -53 -10 0 -18 -5 -18 -11 0 -6 7
-9 15 -5 11 4 15 -1 15 -19 0 -14 -6 -25 -12 -25 -10 0 -10 -2 -1 -8 6 -4 14
-23 18 -43 6 -35 16 -52 58 -112 18 -25 18 -27 -3 -75 -13 -30 -31 -54 -46
-61 -13 -6 -29 -22 -36 -36 -10 -22 -18 -25 -59 -25 -26 0 -51 -4 -54 -10 -4
-6 14 -10 46 -10 41 0 58 -5 76 -22 34 -32 129 -32 172 0 28 21 40 22 200 22
168 0 170 0 195 -25 22 -21 34 -25 89 -25 49 0 70 5 89 20 31 23 123 28 637
29 189 1 342 3 339 6 -3 3 -35 6 -71 6 l-65 1 -17 66 c-9 37 -22 78 -30 92
-12 23 -11 28 30 71 24 26 51 69 61 98 11 31 25 51 34 51 9 0 11 3 4 8 -6 4
-11 36 -12 72 -2 85 -17 149 -57 236 -65 143 -140 191 -187 120 l-22 -33 -145
-6 c-106 -4 -147 -2 -150 6 -9 24 -60 67 -79 67 -11 0 -34 -11 -50 -25z m537
-11 c40 -33 106 -171 120 -248 17 -91 14 -115 -11 -126 l-23 -9 22 0 c16 -1
21 -6 17 -16 -4 -8 -10 -12 -15 -9 -5 3 -9 1 -9 -5 0 -5 5 -11 11 -13 18 -6
-27 -95 -71 -137 -51 -49 -125 -78 -230 -90 -131 -14 -269 8 -347 57 -60 38
-121 142 -83 142 6 0 10 4 10 10 0 5 -7 7 -15 4 -9 -4 -15 0 -15 10 0 9 8 17
18 17 15 1 15 2 -2 6 -17 4 -18 13 -14 96 2 52 9 92 15 94 6 2 8 13 5 25 -3
14 -1 19 6 14 8 -4 10 -2 6 7 -7 20 35 108 49 100 5 -3 7 -2 4 4 -8 13 22 55
34 47 5 -3 8 0 7 8 -2 8 8 14 25 16 26 3 37 -11 17 -23 -5 -3 -10 -1 -10 6 0
7 -3 9 -6 6 -4 -4 -1 -13 6 -22 10 -13 9 -15 -9 -15 -14 0 -25 -9 -32 -27 -13
-36 -5 -57 18 -44 42 23 56 38 47 52 -12 20 -14 38 -3 45 5 3 14 -7 21 -21 11
-25 16 -26 70 -23 34 2 58 -1 59 -7 0 -5 3 -4 6 3 3 8 34 12 103 12 87 0 99 2
104 18 7 22 43 62 56 62 4 0 22 -12 39 -26z m-1209 -34 c11 -11 22 -30 26 -44
5 -23 11 -24 97 -31 51 -4 118 -15 150 -25 31 -10 57 -15 57 -11 0 3 5 -1 10
-9 6 -9 10 -10 10 -3 0 6 12 25 26 43 22 26 29 29 42 18 13 -11 14 -11 7 2 -8
13 -7 13 8 1 9 -7 17 -18 17 -23 0 -5 7 -16 15 -24 19 -19 55 -137 55 -179 0
-27 -5 -34 -22 -38 -20 -4 -19 -4 5 -6 29 -1 37 -27 15 -49 -7 -7 -8 -12 -2
-12 6 0 8 -16 6 -35 -3 -27 -9 -35 -26 -36 -16 -1 -17 -2 -3 -6 20 -5 22 -22
3 -29 -8 -3 -12 -13 -9 -23 5 -22 -47 -88 -97 -122 -141 -95 -473 -38 -596
103 -34 39 -56 119 -35 126 6 2 11 8 11 13 0 6 -4 7 -10 4 -5 -3 -10 1 -10 9
0 9 8 16 17 16 15 0 15 1 -1 13 -17 13 -17 16 1 83 12 43 24 68 32 66 9 -2 10
4 6 19 -5 16 -4 19 5 14 9 -5 11 -4 6 3 -13 21 59 136 77 125 6 -3 7 -1 3 5
-7 11 51 62 72 62 6 0 21 -9 32 -20z m560 -461 c0 -5 -4 -9 -10 -9 -5 0 -10 7
-10 16 0 8 5 12 10 9 6 -3 10 -10 10 -16z m23 -58 c14 -21 42 -49 62 -61 26
-16 34 -27 30 -39 -4 -9 -14 -46 -23 -83 l-17 -68 -78 0 c-75 0 -79 1 -104 30
-13 17 -33 30 -44 30 -30 0 -23 20 21 57 22 19 52 54 66 78 18 32 30 42 42 38
14 -5 15 -3 5 8 -17 18 -16 49 1 49 7 0 25 -17 39 -39z m647 -148 c12 -32 24
-69 27 -83 l5 -26 -294 4 c-161 2 -295 6 -297 8 -2 1 6 35 18 74 18 59 25 71
39 65 108 -41 311 -45 412 -7 30 11 58 21 62 21 4 1 16 -25 28 -56z m-1200
-39 c39 -10 104 -17 161 -17 l97 -1 -15 -23 c-15 -23 -18 -23 -194 -23 -118 0
-179 4 -179 10 0 21 -49 60 -75 60 -29 0 -31 10 -10 50 l15 29 68 -34 c37 -18
96 -41 132 -51z m-185 -18 c29 -12 35 -20 35 -45 0 -16 -5 -33 -12 -37 -15 -9
-124 -15 -144 -7 -30 11 -3 76 40 93 30 12 42 12 81 -4z m588 -27 c24 -30 19
-64 -10 -63 -13 0 -23 -3 -23 -8 0 -4 -13 -8 -30 -8 -16 0 -30 5 -30 11 0 5
-5 7 -10 4 -6 -3 -19 -3 -30 0 -28 9 -27 59 3 80 32 23 105 14 130 -16z"/>
<path d="M1883 1419 c-21 -21 -15 -36 17 -47 39 -14 46 0 18 33 -19 21 -25 24
-35 14z"/>
<path d="M1602 1345 c-17 -37 -14 -45 4 -12 9 16 14 31 11 33 -2 2 -9 -7 -15
-21z"/>
<path d="M1355 1349 c-4 -6 -5 -12 -2 -15 2 -3 7 2 10 11 7 17 1 20 -8 4z"/>
<path d="M1520 1326 c0 -2 8 -10 18 -17 15 -13 16 -12 3 4 -13 16 -21 21 -21
13z"/>
<path d="M1559 1317 c12 -15 11 -20 -6 -37 -12 -10 -24 -16 -27 -13 -3 4 -6 2
-6 -4 0 -9 -40 -23 -105 -37 -15 -3 -13 -4 6 -5 52 -2 158 48 159 75 0 6 -8
18 -17 25 -16 13 -17 12 -4 -4z"/>
<path d="M1320 1220 c-11 -7 -2 -10 29 -10 48 0 51 4 11 13 -14 3 -32 2 -40
-3z"/>
<path d="M1800 1095 c-23 -28 9 -72 45 -59 36 14 24 74 -15 74 -10 0 -23 -7
-30 -15z"/>
<path d="M1476 1084 c-9 -8 -16 -19 -16 -24 0 -9 28 -40 36 -40 17 0 44 23 44
38 0 38 -37 53 -64 26z"/>
<path d="M1675 1049 c-10 -15 3 -25 16 -12 7 7 7 13 1 17 -6 3 -14 1 -17 -5z"/>
<path d="M653 1370 c-19 -29 -16 -40 10 -40 32 0 50 14 45 36 -5 26 -40 29
-55 4z"/>
<path d="M600 1356 c0 -2 8 -10 18 -17 15 -13 16 -12 3 4 -13 16 -21 21 -21
13z"/>
<path d="M840 1305 c-7 -13 -18 -22 -23 -18 -6 3 -7 1 -3 -5 10 -17 12 -16 36
18 12 17 17 30 12 30 -5 0 -15 -11 -22 -25z"/>
<path d="M1110 1305 c-10 -13 -10 -19 5 -35 18 -19 45 -26 58 -14 3 3 1 19 -5
35 -11 32 -38 38 -58 14z"/>
<path d="M800 1262 c0 -5 -12 -14 -26 -21 -15 -6 -24 -14 -21 -18 4 -3 20 3
38 14 19 13 27 23 20 27 -6 4 -11 3 -11 -2z"/>
<path d="M540 1218 c0 -4 16 -8 35 -8 19 0 35 2 35 4 0 2 -16 6 -35 8 -19 2
-35 0 -35 -4z"/>
<path d="M636 1218 c2 -3 -2 -9 -8 -12 -7 -3 -4 -4 7 -1 11 2 39 5 62 7 23 1
41 4 38 6 -7 7 -103 7 -99 0z"/>
<path d="M980 1221 c0 -6 4 -13 10 -16 6 -3 7 1 4 9 -7 18 -14 21 -14 7z"/>
<path d="M1020 1155 c7 -9 15 -13 17 -11 7 7 -7 26 -19 26 -6 0 -6 -6 2 -15z"/>
<path d="M1068 1128 c5 -5 16 -8 23 -6 8 3 3 7 -10 11 -17 4 -21 3 -13 -5z"/>
<path d="M1118 1113 c7 -3 16 -2 19 1 4 3 -2 6 -13 5 -11 0 -14 -3 -6 -6z"/>
<path d="M1158 1103 c7 -3 16 -2 19 1 4 3 -2 6 -13 5 -11 0 -14 -3 -6 -6z"/>
<path d="M611 1066 c-10 -11 -4 -13 33 -9 37 5 46 2 58 -16 14 -22 28 -28 28
-11 0 39 -93 67 -119 36z"/>
<path d="M989 1003 c-12 -15 -12 -16 6 -9 43 17 56 18 80 2 33 -22 42 -20 20
4 -23 25 -87 27 -106 3z"/>
<path d="M845 980 c4 -12 1 -28 -6 -36 -7 -8 -8 -14 -3 -13 5 1 17 -1 27 -6
11 -5 23 -3 30 5 10 10 7 11 -12 5 -23 -7 -24 -6 -18 29 4 28 2 36 -9 36 -11
0 -13 -6 -9 -20z"/>
<path d="M811 944 c0 -11 3 -14 6 -6 3 7 2 16 -1 19 -3 4 -6 -2 -5 -13z"/>
</g>
</svg>
